<svg width="514" height="92" viewBox="0 0 514 92" fill="none" xmlns="http://www.w3.org/2000/svg">
<g clip-path="url(#clip0_11_210)">
<path d="M30.3347 30.9417C30.3347 30.9417 40.1571 31.5896 53.1881 47.096C66.2192 62.6025 91.2453 61.3763 91.2453 61.3763V30.7543C91.2453 30.7543 78.3524 32.4517 64.5033 15.6334C49.5758 -2.49143 30.3825 0.132249 30.3825 0.132249L30.3347 30.9417Z" fill="url(#paint0_linear_11_210)"/>
<path d="M60.8606 61.3745H30.4797V91.9966H60.8606V61.3745Z" fill="#0B1B5C"/>
<path d="M30.3809 30.7549H0V61.3769H30.3809V30.7549Z" fill="#0B1B5C"/>
<path d="M175.51 63.7481L167.478 71.7262L157.815 76.6523H143.849L134.186 71.7262L125.57 62.4577L121.612 48.9645V43.096L125.57 29.6028L134.186 20.3343L143.849 15.4082H157.815L167.478 20.3343L172.482 25.496L177.37 35.1179V49.5481H133.485L135.695 56.0002L141.167 61.5153L146.755 64.4495H155.021L160.376 61.6331L167.011 55.0632L175.51 63.7481ZM134.537 39.107H165.964L164.45 33.4741L160.843 29.2494L155.138 26.1974H146.404L140.933 29.1316L135.111 36.0549L134.526 39.107H134.537Z" fill="#0B1B5C"/>
<path d="M229.071 38.1706L221.506 30.5458L216.034 27.6116H207.652L202.414 30.428L196.825 36.0609L193.797 45.0938V47.0911L196.825 56.0062L202.297 61.5213L207.885 64.4555H216.151L221.506 61.6391L229.304 53.7788L237.804 62.4637L228.609 71.7322L218.945 76.6583H204.974L195.311 71.7322L186.232 62.4637L181.696 48.9705V43.102L186.232 29.6088L195.311 20.3403L204.974 15.4142H218.945L228.609 20.3403L237.687 29.491L229.071 38.1706Z" fill="#0B1B5C"/>
<path d="M287.512 71.7262L277.849 76.6523H264.93L255.272 71.7262L246.193 62.4577L241.657 48.9645V43.096L246.193 29.6028L255.272 20.3343L264.93 15.4082H277.849L287.512 20.3343L296.591 29.6028L301.133 43.096V48.9645L296.591 62.4577L287.512 71.7262ZM285.998 56.1234L289.026 46.9726V45.0932L286.115 36.0603L280.41 30.5452L274.938 27.611H267.602L262.364 30.4274L256.775 36.0603L253.747 45.0932V47.0904L256.775 56.0056L262.247 61.5206L267.836 64.4549H275.05L280.404 61.6384L285.993 56.1234H285.998Z" fill="#0B1B5C"/>
<path d="M358.962 56.5312C356.035 62.2123 352.321 66.6351 347.822 69.8049C343.322 72.9747 338.552 74.5596 333.5 74.5596C325.744 74.5596 319.417 72.0912 314.514 67.1491C309.611 62.2123 307.162 55.8298 307.162 48.0123C307.162 40.1948 310.36 32.8967 316.761 26.5571C323.162 20.2174 330.387 17.0422 338.435 17.0422C343.407 17.0422 347.705 17.8936 351.328 19.5856C354.951 21.283 356.762 23.1998 356.762 25.3363C356.762 26.5142 356.252 27.5691 355.227 28.49C354.202 29.411 352.922 29.8715 351.386 29.8715C350.728 29.8715 350.069 29.6519 349.41 29.2075C348.751 28.7631 347.726 27.7672 346.34 26.2197C343.928 23.5639 341.787 21.7809 339.922 20.8546C338.058 19.9336 336.029 19.4732 333.835 19.4732C328.055 19.4732 323.353 21.631 319.736 25.9467C316.113 30.2624 314.301 35.9541 314.301 43.0327C314.301 50.1113 316.607 56.3813 321.213 61.1735C325.824 65.9658 331.598 68.3645 338.552 68.3645C342.94 68.3645 346.781 67.3526 350.074 65.3232C353.363 63.2939 356.035 60.2901 358.085 56.3063C358.229 56.0868 358.361 55.9208 358.468 55.8084C358.579 55.6959 358.707 55.6799 358.85 55.7548C358.994 55.8298 359.068 55.9422 359.068 56.0868C359.068 56.2314 359.031 56.3813 358.962 56.5312Z" fill="#0B1B5C"/>
<path d="M399.672 58.3036C397.988 61.9178 394.917 65.5481 390.455 69.1998C385.993 72.8516 381.897 74.6721 378.168 74.6721C373.923 74.6721 370.486 73.5102 367.851 71.1863C365.216 68.8625 363.899 65.8961 363.899 62.2819C363.899 58.2286 366.13 54.3573 370.592 50.6681C375.055 46.9843 381.966 43.2951 391.331 39.6058L400.548 35.9541C400.256 29.3949 399.231 24.7633 397.478 22.0754C395.719 19.3821 392.798 18.0382 388.702 18.0382C387.236 18.0382 385.902 18.2202 384.696 18.5897C383.491 18.9591 382.375 19.5481 381.35 20.3566C379.74 21.6096 378.221 23.5479 376.797 26.1662C375.373 28.7845 374.619 30.166 374.55 30.3159C374.035 31.1298 373.434 31.6599 372.739 31.9222C372.043 32.1792 371.001 32.3077 369.61 32.3077C368.292 32.3077 367.23 32.0668 366.428 31.5903C365.62 31.1137 365.222 30.5033 365.222 29.7644C365.222 28.9559 365.567 28.067 366.263 27.1086C366.959 26.1501 367.894 25.3041 369.062 24.5652C372.351 22.4288 375.974 20.6404 379.926 19.2001C383.878 17.7597 387.39 17.0422 390.46 17.0422C396.458 17.0422 401.032 18.7557 404.177 22.1879C407.321 25.6147 408.894 30.6104 408.894 37.1749C408.894 38.6528 408.857 40.4358 408.782 42.5401C408.708 44.6444 408.565 47.9052 408.341 52.328C408.193 55.3533 408.102 57.4522 408.065 58.6302C408.028 59.8082 408.012 60.7345 408.012 61.3931C408.012 64.7878 408.251 67.2026 408.724 68.6376C409.197 70.078 409.988 70.7955 411.083 70.7955C411.89 70.7955 412.857 70.1851 413.988 68.9696C415.12 67.7541 416.129 66.3352 417.006 64.7128C417.298 64.2684 417.664 64.1988 418.1 64.4933C418.541 64.7878 418.61 65.1572 418.318 65.6017C417 67.4436 414.971 69.398 412.23 71.4648C409.489 73.5262 407.236 74.5596 405.483 74.5596C403.433 74.5596 401.882 73.8957 400.819 72.5678C399.757 71.2399 399.226 69.2855 399.226 66.7047C399.226 65.5267 399.263 64.1774 399.332 62.6674C399.406 61.1575 399.512 59.7011 399.661 58.2982L399.672 58.3036ZM371.58 59.0799C371.58 62.1052 372.733 64.6486 375.039 66.71C377.344 68.7768 380.176 69.8049 383.544 69.8049C386.689 69.8049 389.998 68.1664 393.472 64.8842C396.947 61.6019 399.05 58.6355 399.783 55.9797C400.15 51.1875 400.368 47.7232 400.442 45.5814C400.511 43.445 400.548 41.3086 400.548 39.1668V36.843L391.549 40.7142C383.352 44.1785 377.976 47.1128 375.416 49.5062C372.855 51.905 371.575 55.0909 371.575 59.0746L371.58 59.0799Z" fill="#0B1B5C"/>
<path d="M427.732 73.3819C426.144 73.4194 424.55 73.4569 422.957 73.4569H420.486C420.045 73.4569 419.828 73.2909 419.828 72.9589C419.828 72.6269 420.045 72.461 420.486 72.461C422.68 72.461 424.125 72.1825 424.821 71.631C425.517 71.0795 426.011 70.0247 426.303 68.4773C426.372 67.6687 426.447 66.6353 426.521 65.3824C426.595 64.1294 426.633 62.4321 426.633 60.2957V31.7619C426.633 30.5089 426.229 29.2024 425.427 27.837C424.619 26.4717 423.339 24.9831 421.586 23.3554C421.437 23.2108 421.368 23.077 421.368 22.9699C421.368 22.8628 421.437 22.7664 421.586 22.6914C422.829 22.1774 424.2 21.476 425.698 20.5871C427.196 19.7037 428.349 18.8577 429.156 18.0438C429.299 17.8992 429.411 17.8403 429.485 17.8778C429.554 17.9153 429.666 18.0063 429.815 18.1562C430.909 19.2646 431.918 20.7745 432.832 22.6914C433.746 24.6083 434.314 26.4877 434.532 28.3297C435.042 26.4128 435.849 24.7154 436.944 23.2429C438.043 21.7705 439.648 20.3301 441.773 18.9273C442.724 18.3383 443.728 17.8778 444.79 17.5458C445.847 17.2138 446.931 17.0479 448.025 17.0479C449.56 17.0479 450.766 17.2138 451.648 17.5458C452.53 17.8778 452.966 18.3758 452.966 19.0397C452.966 20.3676 452.434 21.658 451.372 22.911C450.309 24.1639 449.013 24.7904 447.478 24.7904H443.419C441.151 24.7904 439.526 24.9028 438.537 25.1223C437.549 25.3419 436.795 25.7488 436.285 26.3378C435.701 26.9268 435.297 27.8478 435.079 29.1007C434.861 30.3536 434.75 32.4579 434.75 35.4029V72.4556H441.443C441.884 72.4556 442.102 72.6216 442.102 72.9536C442.102 73.2855 441.884 73.4515 441.443 73.4515H440.567C438.421 73.4515 436.274 73.3123 434.128 73.2909C431.982 73.2695 429.857 73.3284 427.727 73.3766L427.732 73.3819Z" fill="#0B1B5C"/>
<path d="M496.423 69.3661C493.788 71.133 491.1 72.4449 488.359 73.2909C485.618 74.1369 482.781 74.5652 479.854 74.5652C471.662 74.5652 465.022 72.0968 459.938 67.1547C454.854 62.2179 452.31 55.8354 452.31 48.0179C452.31 44.1841 453.112 40.4039 454.721 36.6826C456.331 32.9612 458.636 29.5879 461.633 26.5627C464.56 23.5374 467.885 21.1975 471.62 19.5377C475.349 17.8778 479.083 17.0479 482.813 17.0479C485.517 17.0479 487.971 17.3263 490.165 17.8778C492.359 18.4293 494.261 19.2592 495.87 20.3676C497.99 21.7705 499.599 23.5374 500.699 25.6792C501.793 27.821 502.197 29.9199 501.905 31.9814C501.756 33.1594 501.321 34.0268 500.588 34.5783C499.854 35.1298 498.76 35.4082 497.294 35.4082H459.874C459.582 36.6612 459.343 38.0051 459.162 39.4455C458.976 40.8858 458.886 42.3743 458.886 43.9271C458.886 50.7112 461.447 56.4458 466.568 61.1256C471.689 65.8107 477.978 68.1506 485.442 68.1506C491.514 68.1506 496.779 66.4211 501.241 62.9515C505.703 59.4871 509.618 54.0684 512.981 46.69C513.273 46.0261 513.544 45.7476 513.804 45.8601C514.059 45.9725 514.044 46.3206 513.751 46.9096C511.701 51.7767 509.177 56.146 506.181 60.0172C503.18 63.8885 499.929 67.0048 496.412 69.3607L496.423 69.3661ZM492.364 29.5505C492.364 26.8947 491.174 24.5548 488.8 22.5254C486.42 20.4961 483.402 19.4841 479.747 19.4841C474.77 19.4841 470.584 20.796 467.184 23.4089C463.784 26.0272 461.42 29.7325 460.103 34.5247C462.589 34.5247 465.059 34.5087 467.508 34.4712C469.957 34.4337 473.197 34.3802 477.219 34.3052C480.072 34.2302 482.138 34.1767 483.418 34.1392C484.699 34.1017 485.888 34.0857 486.983 34.0857C487.716 34.0857 489.108 34.0375 489.894 33.8983C490.935 33.7162 491.227 33.2343 491.376 33.0898C491.668 32.7203 491.907 32.2223 492.088 31.5959C492.269 30.9694 492.364 30.2894 492.364 29.5505Z" fill="#0B1B5C"/>
</g>
<defs>
<linearGradient id="paint0_linear_11_210" x1="30.3347" y1="30.7007" x2="91.24" y2="30.7007" gradientUnits="userSpaceOnUse">
<stop stop-color="#26EA8F"/>
<stop offset="1" stop-color="#3128FF"/>
</linearGradient>
<clipPath id="clip0_11_210">
<rect width="514" height="92" fill="white"/>
</clipPath>
</defs>
</svg>
