<svg width="842" height="64" viewBox="0 0 842 64" fill="none" xmlns="http://www.w3.org/2000/svg">
<path d="M0 6.33601H9.216L19.584 23.872C20.032 24.64 20.16 25.536 20.224 26.688C20.224 27.072 20.352 27.584 20.992 27.584C21.632 27.584 21.76 27.072 21.76 26.688C21.824 25.536 21.952 24.64 22.4 23.872L32.768 6.33601H41.984L25.344 33.728V51.392H16.64V33.728L0 6.33601Z" fill="#0B1B5C"/>
<path d="M55.7565 17.088C66.3165 17.088 72.6525 24.896 72.6525 34.496C72.6525 44.096 66.3165 51.904 55.7565 51.904C45.1965 51.904 38.8605 44.096 38.8605 34.496C38.8605 24.896 45.1965 17.088 55.7565 17.088ZM55.7565 44.48C61.3245 44.48 64.4605 40 64.4605 34.496C64.4605 28.992 61.3245 24.512 55.7565 24.512C50.1885 24.512 47.0525 28.992 47.0525 34.496C47.0525 40 50.1885 44.48 55.7565 44.48Z" fill="#0B1B5C"/>
<path d="M88.9195 51.904C81.6235 51.904 76.7595 47.168 76.7595 37.568V17.6H84.9515V34.752C84.9515 42.368 86.9355 44.48 91.2235 44.48C95.9595 44.48 100.312 39.168 100.312 31.36V17.6H108.504V51.392H100.312V49.28C100.312 47.232 100.76 46.016 101.336 44.672C101.592 44.096 101.976 43.2 101.144 43.008C100.632 42.88 100.44 43.264 100.184 43.776C98.5195 47.104 94.8075 51.904 88.9195 51.904Z" fill="#0B1B5C"/>
<path d="M122.711 24.832C123.095 24.896 123.415 24.384 123.479 24.192C125.527 19.52 127.382 17.088 135.638 17.088V25.408C126.102 24.768 123.351 28.16 123.351 36.736V51.392H115.159V17.6H123.351V19.456C123.351 20.928 122.967 22.208 122.391 23.36C122.135 23.936 121.943 24.704 122.711 24.832Z" fill="#0B1B5C"/>
<path d="M509.298 28.864C509.298 16.128 517.362 5.82401 531.57 5.82401C545.586 5.82401 551.73 15.744 552.306 23.232H543.666C543.09 18.816 539.378 13.504 531.698 13.504C522.994 13.504 518.002 20.352 518.002 28.864C518.002 37.376 522.994 44.224 531.698 44.224C539.378 44.224 543.09 38.912 543.666 34.496H552.306C551.73 41.984 545.586 51.904 531.57 51.904C517.362 51.904 509.298 41.6 509.298 28.864Z" fill="#0B1B5C"/>
<path d="M572.257 17.088C582.817 17.088 589.153 24.896 589.153 34.496C589.153 44.096 582.817 51.904 572.257 51.904C561.697 51.904 555.361 44.096 555.361 34.496C555.361 24.896 561.697 17.088 572.257 17.088ZM572.257 44.48C577.825 44.48 580.961 40 580.961 34.496C580.961 28.992 577.825 24.512 572.257 24.512C566.689 24.512 563.553 28.992 563.553 34.496C563.553 40 566.689 44.48 572.257 44.48Z" fill="#0B1B5C"/>
<path d="M630.276 17.088C636.164 17.088 641.411 20.288 641.411 30.4V51.392H633.22V31.68C633.22 26.56 631.748 24.512 627.78 24.512C624.196 24.512 621.444 28.352 621.444 34.368V51.392H613.252V32.448C613.252 27.328 612.548 24.512 608.388 24.512C604.42 24.512 601.476 29.248 601.476 35.776V51.392H593.284V17.6H601.476V19.52C601.476 21.184 601.028 22.144 600.388 23.552C600.132 24.128 599.94 24.768 600.58 24.96C601.22 25.152 601.476 24.576 601.604 24.256C603.332 19.84 606.468 17.088 610.948 17.088C615.364 17.088 618.18 19.84 619.076 23.744C619.204 24.192 619.524 24.384 620.036 24.384C620.42 24.384 620.74 24.256 620.932 23.808C622.852 19.52 626.244 17.088 630.276 17.088Z" fill="#0B1B5C"/>
<path d="M655.226 17.6V18.88C655.226 20.224 654.906 21.248 654.33 22.4C654.074 23.04 653.626 23.808 654.266 24.128C654.906 24.448 655.29 23.616 655.418 23.36C657.466 19.776 660.858 17.088 666.106 17.088C674.874 17.088 680.826 24.768 680.826 34.496C680.826 44.224 674.874 51.904 666.106 51.904C660.986 51.904 657.466 49.28 655.418 45.568C655.29 45.376 655.034 44.736 654.458 44.928C653.754 45.184 654.01 45.824 654.33 46.464C654.906 47.616 655.226 48.64 655.226 49.92V63.68H647.034V17.6H655.226ZM664.186 44.48C669.946 44.48 672.634 39.872 672.634 34.496C672.634 29.12 669.946 24.512 664.186 24.512C658.81 24.512 655.226 29.12 655.226 34.496C655.226 39.872 658.81 44.48 664.186 44.48Z" fill="#0B1B5C"/>
<path d="M683.923 42.112C683.923 34.624 689.427 31.872 696.211 31.488C702.227 31.168 707.539 31.744 707.475 28.608C707.411 26.304 706.515 23.744 700.691 23.744C694.931 23.744 693.459 26.112 693.011 28.864H684.947C686.099 20.352 693.395 17.088 700.947 17.088C708.691 17.088 715.667 19.648 715.667 32.704V51.392H707.475V49.024C707.475 47.488 707.859 46.4 708.435 45.312C708.691 44.736 708.947 44.096 708.371 43.84C707.731 43.584 707.475 44.224 707.347 44.544C705.427 49.216 701.715 51.904 695.699 51.904C689.363 51.904 683.923 47.808 683.923 42.112ZM707.475 33.984C705.555 36.096 702.483 36.416 697.619 36.928C694.099 37.312 692.115 38.656 692.115 41.664C692.115 44.48 694.803 46.272 698.579 45.76C702.931 45.184 707.411 42.368 707.475 33.984Z" fill="#0B1B5C"/>
<path d="M741.43 17.088C748.726 17.088 753.59 21.824 753.59 31.424V51.392H745.398V34.24C745.398 26.624 743.414 24.512 739.126 24.512C734.39 24.512 730.038 29.824 730.038 37.632V51.392H721.846V17.6H730.038V19.712C730.038 21.76 729.654 22.976 729.014 24.32C728.758 24.896 728.374 25.792 729.206 25.984C729.718 26.112 729.91 25.728 730.166 25.216C731.702 21.824 735.542 17.088 741.43 17.088Z" fill="#0B1B5C"/>
<path d="M759.221 13.504V5.31201H767.413V13.504H759.221ZM759.221 51.392V17.6H767.413V51.392H759.221Z" fill="#0B1B5C"/>
<path d="M788.444 17.088C799.004 17.088 805.34 24.896 805.34 34.496C805.34 44.096 799.004 51.904 788.444 51.904C777.884 51.904 771.548 44.096 771.548 34.496C771.548 24.896 777.884 17.088 788.444 17.088ZM788.444 44.48C794.012 44.48 797.148 40 797.148 34.496C797.148 28.992 794.012 24.512 788.444 24.512C782.876 24.512 779.74 28.992 779.74 34.496C779.74 40 782.876 44.48 788.444 44.48Z" fill="#0B1B5C"/>
<path d="M829.055 17.088C836.351 17.088 841.215 21.824 841.215 31.424V51.392H833.023V34.24C833.023 26.624 831.039 24.512 826.751 24.512C822.015 24.512 817.663 29.824 817.663 37.632V51.392H809.471V17.6H817.663V19.712C817.663 21.76 817.279 22.976 816.639 24.32C816.383 24.896 815.999 25.792 816.831 25.984C817.343 26.112 817.535 25.728 817.791 25.216C819.327 21.824 823.167 17.088 829.055 17.088Z" fill="#0B1B5C"/>
<path d="M203.981 14.336L197.069 42.048C195.277 49.28 195.981 49.472 201.357 50.24L201.101 51.392H181.389L181.645 50.24C187.405 49.472 188.237 49.28 190.029 42.048L193.293 28.864H171.405L168.141 42.048C166.349 49.28 167.053 49.472 172.429 50.24L172.173 51.392H152.461L152.717 50.24C158.477 49.472 159.309 49.28 161.101 42.048L168.013 14.336C169.805 7.104 169.101 6.912 163.725 6.144L163.981 4.992H183.693L183.437 6.144C177.677 6.912 176.845 7.104 175.053 14.336L172.109 26.048H193.997L196.941 14.336C198.733 7.104 198.029 6.912 192.653 6.144L192.909 4.992H212.621L212.365 6.144C206.605 6.912 205.773 7.104 203.981 14.336Z" fill="#3128FF"/>
<path d="M209.177 42.176C209.177 30.208 219.801 16.384 230.489 16.384C233.433 16.384 238.297 17.792 238.297 22.464C238.297 28.224 232.409 31.04 224.537 32.704L217.113 34.24C216.601 36.48 216.345 38.72 216.345 40.704C216.345 44.928 217.881 47.616 221.209 47.616C225.497 47.616 230.169 44.288 233.177 37.888L234.265 38.592C230.297 47.488 224.729 52.224 218.201 52.224C212.633 52.224 209.177 48.64 209.177 42.176ZM228.697 18.688C223.705 18.688 219.609 25.344 217.625 32.32L221.017 31.68C228.121 30.464 231.833 27.008 231.833 22.464C231.833 20.608 231.065 18.688 228.697 18.688Z" fill="#3128FF"/>
<path d="M247.665 52.224C242.993 52.224 240.177 48.576 240.177 42.304C240.177 30.592 251.441 16.384 261.489 16.384C262.961 16.384 265.201 16.768 266.417 17.664L273.137 16.384L269.553 30.4L266.097 44.224C265.521 46.592 265.137 48.384 267.057 48.384C268.593 48.384 272.177 46.272 274.993 41.6L276.017 42.24C272.433 48.768 267.569 52.224 263.857 52.224C259.569 52.224 258.353 48.896 260.017 42.88L261.681 36.928C258.225 45.568 253.041 52.224 247.665 52.224ZM251.057 47.552C255.985 47.552 262.193 34.176 264.945 23.104L265.521 20.736C264.817 19.648 263.153 18.688 261.425 18.688C252.593 18.688 247.601 32.384 247.601 40.896C247.601 45.12 248.625 47.552 251.057 47.552Z" fill="#3128FF"/>
<path d="M289.289 12.352C290.889 6.016 291.081 5.056 285.961 5.056L286.281 3.904L298.889 0L295.305 14.016L287.817 44.224C287.241 46.592 286.857 48.384 288.777 48.384C290.313 48.384 293.897 46.272 296.713 41.6L297.737 42.24C294.153 48.768 289.289 52.224 285.577 52.224C281.161 52.224 280.201 48.96 281.737 42.88L289.289 12.352Z" fill="#3128FF"/>
<path d="M303.49 42.88L309.186 19.456H303.554L304.194 16.96H309.826L311.426 10.752L318.914 6.464L316.29 16.96H325.954L325.378 19.456H315.65L309.57 44.224C308.994 46.592 308.61 48.384 310.53 48.384C312.322 48.384 316.29 46.272 319.106 41.6L320.13 42.24C316.61 48.768 311.298 52.224 307.33 52.224C302.914 52.224 302.018 48.96 303.49 42.88Z" fill="#3128FF"/>
<path d="M337.629 33.152C343.261 21.696 347.549 16.384 352.413 16.384C356.637 16.384 358.813 20.48 356.701 27.84L351.965 44.224C351.261 46.528 351.005 48.384 352.925 48.384C354.461 48.384 358.045 46.272 360.861 41.6L361.885 42.24C358.301 48.768 353.437 52.224 349.725 52.224C345.437 52.224 344.093 48.896 345.885 42.88L349.853 29.376C351.837 22.784 351.581 20.992 349.597 20.992C344.925 20.992 336.797 36.672 334.557 45.568L333.085 51.392H326.749L336.477 12.352C338.077 6.016 338.269 5.056 333.149 5.056L333.469 3.904L346.077 0L342.493 14.016L337.629 33.152Z" fill="#3128FF"/>
<path d="M364.552 42.176C364.552 30.208 375.368 16.384 385.672 16.384C391.048 16.384 393.736 19.456 392.776 26.368L386.568 26.752C387.336 23.232 388.168 18.688 384.2 18.688C377.16 18.688 371.72 32.128 371.72 40.704C371.72 44.928 373.256 47.616 376.584 47.616C380.872 47.616 385.544 44.16 388.552 37.76L389.64 38.464C385.672 47.36 380.104 52.224 373.576 52.224C368.008 52.224 364.552 48.64 364.552 42.176Z" fill="#3128FF"/>
<path d="M402.54 52.224C397.868 52.224 395.052 48.576 395.052 42.304C395.052 30.592 406.316 16.384 416.364 16.384C417.836 16.384 420.076 16.768 421.292 17.664L428.012 16.384L424.428 30.4L420.972 44.224C420.396 46.592 420.012 48.384 421.932 48.384C423.468 48.384 427.052 46.272 429.868 41.6L430.892 42.24C427.308 48.768 422.444 52.224 418.732 52.224C414.444 52.224 413.228 48.896 414.892 42.88L416.556 36.928C413.1 45.568 407.916 52.224 402.54 52.224ZM405.932 47.552C410.86 47.552 417.068 34.176 419.82 23.104L420.396 20.736C419.692 19.648 418.028 18.688 416.3 18.688C407.468 18.688 402.476 32.384 402.476 40.896C402.476 45.12 403.5 47.552 405.932 47.552Z" fill="#3128FF"/>
<path d="M449.476 16.448L447.94 22.72C451.716 18.816 455.812 16.384 460.484 16.384C460.804 16.384 461.188 16.448 461.508 16.448L459.46 24.512H458.82C457.54 23.36 455.428 22.528 453.124 22.528C451.076 22.528 449.092 22.912 447.556 24.128L440.964 51.392H434.436L440.068 28.736C441.668 22.4 441.86 21.44 436.74 21.44L437.06 20.288L449.476 16.448Z" fill="#3128FF"/>
<path d="M460.052 42.176C460.052 30.208 470.676 16.384 481.364 16.384C484.308 16.384 489.172 17.792 489.172 22.464C489.172 28.224 483.284 31.04 475.412 32.704L467.988 34.24C467.476 36.48 467.22 38.72 467.22 40.704C467.22 44.928 468.756 47.616 472.084 47.616C476.372 47.616 481.044 44.288 484.052 37.888L485.14 38.592C481.172 47.488 475.604 52.224 469.076 52.224C463.508 52.224 460.052 48.64 460.052 42.176ZM479.572 18.688C474.58 18.688 470.484 25.344 468.5 32.32L471.892 31.68C478.996 30.464 482.708 27.008 482.708 22.464C482.708 20.608 481.94 18.688 479.572 18.688Z" fill="#3128FF"/>
</svg>
